<?xml version="1.0" encoding="UTF-8"?>
<svg id="Layer_1" data-name="Layer 1" xmlns="http://www.w3.org/2000/svg" version="1.1" viewBox="0 0 1024 1024">
  <defs>
    <style>path { fill: rgba(0, 0, 0,  1);}
@media (prefers-color-scheme: dark) {
  path { fill: rgba(255, 255, 255, 1);}
}</style>
  </defs>
  <path class="cls-1" d="M505.8,159.3c-27.9,9.7-41.6,42.3-28.8,68.3,3.8,7.7,12.8,17.4,20.4,21.9,9,5.3,15.4,6.8,27.1,6.3,9.3-.3,10.6-.6,18.6-4.5,18-8.8,28.9-25.9,28.9-45.4s-10.9-36.1-29-44.8c-7.1-3.4-8.1-3.6-19-3.9-9.9-.2-12.4.1-18.2,2.1Z"/>
  <path class="cls-1" d="M714.3,199.5c-7.1,1.9-11.9,4.5-17.2,9.2l-4.4,3.9,6.4,4.1c26.4,16.9,43.1,27.3,44,27.6,2.1.4,5.1-9.5,5.3-17.3.1-6.6-.3-8.3-3.2-14.2-3.6-7.4-8-11.3-15-13.4-5.6-1.7-9.2-1.7-15.9.1Z"/>
  <path class="cls-1" d="M671.5,238.3c-20,27.2-54.3,75.6-60.7,85.9l-1.7,2.6,15.2,9.8c8.4,5.4,21.2,13.7,28.5,18.6,7.4,4.8,13.7,8.8,14,8.8,2-.1,54.8-78.1,66.5-98.1,2.5-4.4,2.5-4.7.9-6.1-2.8-2.5-51.9-33.8-52.9-33.7-.4,0-4.8,5.5-9.8,12.2ZM714.4,263.7c-6.1,10.1-17.3,25.5-24.4,33.3-3.3,3.6-2.6,2.2,3.6-7.5,7.9-12.4,25.6-36.5,26.3-35.9.2.2-2.3,4.7-5.5,10.1Z"/>
  <path class="cls-1" d="M456,251.5c-63,18.3-114.9,63.8-143,125.2-2.7,6-5,11.3-5,11.9s4.9,1.5,12,2.3c10.3,1,21.1,3.3,27.2,5.6,1.3.5,2.1-.2,3.2-3,2.8-6.5,12.3-21.8,20.2-32.5,9.1-12.1,24.1-27.4,35.3-35.9,26.6-20.3,63.5-34.8,93.2-36.8l8.6-.6-.2,30.4c-.1,16.7.2,31.4.6,32.6.8,2.2,1.3,2.3,13.3,2.3s12.6-.2,13.6-1.9c.6-1.2,1-13.4,1-32.7v-30.7l9.3.6c10.3.7,23.4,3.3,36.3,7.3,4.7,1.4,8.7,2.4,8.8,2.2.1-.1,1.7-3,3.6-6.3,1.8-3.3,6.6-11,10.6-17.2,4.1-6.2,7.4-11.6,7.4-12.1,0-1.5-21-9.8-32.1-12.7l-6.1-1.6-5.9,6.4c-11.1,12.1-23,17.5-40.9,18.4-21.4,1.1-36.3-3.9-48.6-16.4-3.5-3.6-6.4-6.9-6.4-7.4,0-1.6-4.2-.9-16,2.6Z"/>
  <path class="cls-1" d="M487.5,303.6c-38.7,6.9-73.9,26.5-99.5,55.5-8.3,9.4-19.6,25.8-24.6,35.8l-3.3,6.4,11.2,5.1c6.2,2.9,12.1,5.7,13.1,6.3,1.7.9,2.5.1,7-7.3,7.6-12.6,12.9-19.4,23-29.7,12.3-12.6,24.6-21.5,40.1-29.2,14.1-7,24.2-10.6,35.4-12.5l7.1-1.3v-15.4c0-8.4-.3-15.3-.7-15.2-.5,0-4.4.7-8.8,1.5Z"/>
  <path class="cls-1" d="M844.3,322.4c-35.4,9.5-82.8,31.5-120.8,55.8-49.2,31.6-85.2,61.7-194.5,162.5l-6.6,6.1-20.5-18.1c-47.1-41.7-84.1-71.9-105.9-86.5-15.5-10.4-41-23.1-53-26.5-39.9-11.1-73.4-6-107.8,16.6-8.8,5.8-27.9,22.4-26.8,23.4.2.2,4.8-1.8,10.2-4.5,20.9-10.5,39.6-15,57.8-13.9,16.8,1,30.1,5.7,46.1,16.2,16.2,10.7,27.2,20.4,103,91.5,66.7,62.4,86.3,80.3,90.2,82.3,8,4.2,12.7,1.6,34.9-19,19.8-18.4,78.2-73.7,113.9-107.8,57.9-55.2,91.7-87.2,116.5-110,10.2-9.4,21.6-20,25.5-23.6,3.8-3.6,17.2-15.9,29.7-27.2,12.5-11.4,22.2-20.7,21.5-20.6-.7,0-6.7,1.5-13.4,3.3Z"/>
  <path class="cls-1" d="M586.7,356.3c-13.6,18.2-17.7,23.9-36.7,51.2-17.7,25.5-16.1,22.8-17.6,29.2-1,4.5-1,5.2.1,4.3,1.5-1.2,16.1-6,18.6-6s2.7,1.7,4,3.7c1.7,2.5,6.5,6.2,15.9,12,15.1,9.3,14.9,9.1,14.4,20.4l-.2,6.4,2.1-2.6c6.9-8.2,14.7-18.3,25.8-33.4,11.7-15.8,17.4-23.8,36.6-51.7l7.3-10.7-13.7-9c-7.6-4.9-19.6-12.8-26.8-17.6-7.1-4.7-14.2-9.2-15.7-10l-2.7-1.5-11.4,15.3ZM624.8,390.7c-.8,1-4.6,6.3-8.4,11.8-9.4,13.8-16.4,22.6-26.1,32.5l-8.3,8.5,9.2-12.5c9.3-12.7,33.5-42,34.5-42s-.1.8-.9,1.7Z"/>
  <path class="cls-1" d="M708.9,348.8c-.9,1.5-5.3,8-9.8,14.5-4.5,6.6-8.1,12.1-8.1,12.4s1.9-.9,4.3-2.5c2.3-1.6,8.6-5.8,14-9.2,5.3-3.4,9.7-6.4,9.7-6.6,0-1.1-7.4-11.4-8.1-11.4s-1.1,1.2-2,2.8Z"/>
  <path class="cls-1" d="M530.6,451.2c-.5,2.7-3.8,27.9-7.4,56.5-.5,3.5-.6,6.3-.3,6.3.6,0,22.6-13.8,44.7-27.9l11.6-7.5-2.4-1.8c-1.2-1-7.2-5-13.3-8.9-6-3.9-15.5-9.9-20.9-13.5-5.5-3.5-10.3-6.4-10.7-6.4s-1.1,1.5-1.3,3.2Z"/>
  <path class="cls-1" d="M730,463.1c-6.9,6.6-16.9,15.6-22.2,20.1-9.6,8.1-9.8,8.4-9.8,12.5s-1.1,9.7-2.6,16.3c-12.9,61.5-58.5,112.7-117.4,132-19.6,6.5-30.6,8.2-54,8.5-18.3.3-21.9.1-33.5-2.1-49.5-9.4-89.9-36.2-117.7-77.9-7.9-12-14.9-26.4-19.7-41-4.2-12.5-8.1-29.9-8.1-35.7s-.8-3.9-13.8-13.4c-15.4-11.4-27.8-19.7-30.6-20.7-1.8-.7-1.8,0-1.3,20.5.6,23.9,2.4,36.2,8.3,56.3,10.2,34.7,27.7,64.3,53.6,91.1,33.7,34.8,73.7,55.8,122.5,64.6,17.1,3,56.8,3.3,73.3.5,36.9-6.3,70.7-20.6,99.9-42.5s30-27,39.4-38.7c11.1-13.8,17.9-24.6,25.8-41,10.6-21.9,17.9-45.4,21-67.5,1.4-10.3,1.6-45.4.2-50.6l-.8-3.2-12.5,11.9Z"/>
</svg>